<svg xmlns="http://www.w3.org/2000/svg" viewBox="0 0 1200 760" role="img" aria-labelledby="title desc">
  <title id="title">실리프팅 대표 비주얼</title>
  <desc id="desc">얼굴 윤곽과 리프팅 실의 방향을 추상적으로 표현한 의료 정보용 일러스트</desc>
  <defs>
    <linearGradient id="bg" x1="0" y1="0" x2="1" y2="1">
      <stop offset="0" stop-color="#f8eee8"/>
      <stop offset=".5" stop-color="#fffdf9"/>
      <stop offset="1" stop-color="#e9f3ee"/>
    </linearGradient>
    <linearGradient id="skin" x1=".2" y1=".05" x2=".9" y2="1">
      <stop offset="0" stop-color="#f6d8c8"/>
      <stop offset=".62" stop-color="#efbfae"/>
      <stop offset="1" stop-color="#df9d93"/>
    </linearGradient>
    <filter id="shadow" x="-20%" y="-20%" width="140%" height="140%">
      <feDropShadow dx="0" dy="22" stdDeviation="26" flood-color="#28384a" flood-opacity=".16"/>
    </filter>
  </defs>
  <rect width="1200" height="760" fill="url(#bg)"/>
  <path d="M146 142 C297 51 475 54 612 153 C733 241 845 249 1006 174 L1057 276 C912 366 772 389 626 316 C489 247 356 247 230 335 Z" fill="#8eb9a5" opacity=".18"/>
  <path d="M213 619 C362 519 501 508 675 575 C818 629 968 617 1100 535 L1100 760 L213 760 Z" fill="#d78787" opacity=".14"/>
  <g filter="url(#shadow)">
    <path d="M738 138 C861 224 915 352 891 469 C863 606 747 681 600 667 C460 654 342 560 312 434 C285 318 335 199 441 132 C523 80 648 75 738 138 Z" fill="url(#skin)"/>
    <path d="M515 286 C562 269 640 269 691 289" fill="none" stroke="#28384a" stroke-width="13" stroke-linecap="round" opacity=".38"/>
    <path d="M435 414 C502 453 610 465 715 434" fill="none" stroke="#28384a" stroke-width="15" stroke-linecap="round" opacity=".24"/>
    <path d="M760 315 C779 339 783 370 771 395" fill="none" stroke="#28384a" stroke-width="10" stroke-linecap="round" opacity=".26"/>
  </g>
  <g stroke-linecap="round" stroke-linejoin="round">
    <path d="M315 478 C456 418 569 340 710 224" fill="none" stroke="#d78787" stroke-width="13"/>
    <path d="M343 535 C493 477 621 392 771 255" fill="none" stroke="#b9975b" stroke-width="13"/>
    <path d="M389 594 C530 536 675 438 830 294" fill="none" stroke="#8eb9a5" stroke-width="13"/>
    <path d="M686 220 L726 211 L715 250" fill="none" stroke="#d78787" stroke-width="13"/>
    <path d="M747 253 L788 244 L775 284" fill="none" stroke="#b9975b" stroke-width="13"/>
    <path d="M807 293 L849 283 L835 324" fill="none" stroke="#8eb9a5" stroke-width="13"/>
  </g>
  <g fill="#ffffff" stroke="#28384a" stroke-width="5">
    <circle cx="315" cy="478" r="18"/>
    <circle cx="343" cy="535" r="18"/>
    <circle cx="389" cy="594" r="18"/>
  </g>
  <g font-family="-apple-system, BlinkMacSystemFont, 'Noto Sans KR', sans-serif" fill="#28384a">
    <text x="72" y="96" font-size="34" font-weight="800">Thread lifting guide</text>
    <text x="72" y="145" font-size="22" opacity=".68">비절개 리프팅의 핵심은 방향, 고정점, 조직 평가입니다.</text>
  </g>
</svg>
